<mxfile host="65bd71144e">
    <diagram id="seRhBhtj1rrgoEPjoS1J" name="Page-1">
        <mxGraphModel dx="948" dy="299" grid="1" gridSize="1" guides="1" tooltips="1" connect="1" arrows="1" fold="1" page="1" pageScale="1" pageWidth="850" pageHeight="1100" background="none" math="0" shadow="0">
            <root>
                <mxCell id="0"/>
                <mxCell id="1" parent="0"/>
                <mxCell id="25" value="" style="rounded=0;whiteSpace=wrap;html=1;strokeColor=#FFFFFF;fillColor=#FFFFFF;" vertex="1" parent="1">
                    <mxGeometry x="91" y="144" width="491" height="209" as="geometry"/>
                </mxCell>
                <mxCell id="2" value="Cloud&#10;Storage" style="sketch=0;html=1;fillColor=#5184F3;strokeColor=none;verticalAlign=top;labelPosition=center;verticalLabelPosition=bottom;align=center;spacingTop=-6;fontSize=11;fontStyle=1;fontColor=#999999;shape=mxgraph.gcp2.hexIcon;prIcon=cloud_storage" vertex="1" parent="1">
                    <mxGeometry x="300" y="160.5" width="66" height="58.5" as="geometry"/>
                </mxCell>
                <mxCell id="3" value="" style="sketch=0;html=1;dashed=0;whitespace=wrap;fillColor=#2875E2;strokeColor=#ffffff;points=[[0.005,0.63,0],[0.1,0.2,0],[0.9,0.2,0],[0.5,0,0],[0.995,0.63,0],[0.72,0.99,0],[0.5,1,0],[0.28,0.99,0]];shape=mxgraph.kubernetes.icon;prIcon=api" vertex="1" parent="1">
                    <mxGeometry x="110" y="165.75" width="50" height="48" as="geometry"/>
                </mxCell>
                <mxCell id="12" value="" style="edgeStyle=none;html=1;strokeColor=#000000;" edge="1" parent="1" source="4" target="2">
                    <mxGeometry relative="1" as="geometry"/>
                </mxCell>
                <mxCell id="13" value="" style="edgeStyle=none;html=1;strokeColor=#000000;" edge="1" parent="1" source="4" target="5">
                    <mxGeometry relative="1" as="geometry"/>
                </mxCell>
                <mxCell id="4" value="Cloud&#10;Dataproc" style="sketch=0;html=1;fillColor=#5184F3;strokeColor=none;verticalAlign=top;labelPosition=center;verticalLabelPosition=bottom;align=center;spacingTop=-6;fontSize=11;fontStyle=1;fontColor=#999999;shape=mxgraph.gcp2.hexIcon;prIcon=cloud_dataproc" vertex="1" parent="1">
                    <mxGeometry x="392" y="160.5" width="66" height="58.5" as="geometry"/>
                </mxCell>
                <mxCell id="5" value="Cloud&#10;Bigtable" style="sketch=0;html=1;fillColor=#5184F3;strokeColor=none;verticalAlign=top;labelPosition=center;verticalLabelPosition=bottom;align=center;spacingTop=-6;fontSize=11;fontStyle=1;fontColor=#999999;shape=mxgraph.gcp2.hexIcon;prIcon=cloud_bigtable" vertex="1" parent="1">
                    <mxGeometry x="480" y="160.5" width="66" height="58.5" as="geometry"/>
                </mxCell>
                <mxCell id="10" value="" style="edgeStyle=none;html=1;strokeColor=#000000;" edge="1" parent="1" source="7" target="3">
                    <mxGeometry relative="1" as="geometry"/>
                </mxCell>
                <mxCell id="11" value="" style="edgeStyle=none;html=1;strokeColor=#000000;" edge="1" parent="1" source="7" target="2">
                    <mxGeometry relative="1" as="geometry"/>
                </mxCell>
                <mxCell id="7" value="Cloud&#10;Functions" style="sketch=0;html=1;fillColor=#5184F3;strokeColor=none;verticalAlign=top;labelPosition=center;verticalLabelPosition=bottom;align=center;spacingTop=-6;fontSize=11;fontStyle=1;fontColor=#999999;shape=mxgraph.gcp2.hexIcon;prIcon=cloud_functions" vertex="1" parent="1">
                    <mxGeometry x="200" y="160.5" width="66" height="58.5" as="geometry"/>
                </mxCell>
                <mxCell id="14" value="" style="rounded=1;whiteSpace=wrap;html=1;fillColor=none;strokeColor=#000000;" vertex="1" parent="1">
                    <mxGeometry x="100" y="158" width="450" height="89.5" as="geometry"/>
                </mxCell>
                <mxCell id="15" value="Cloud&#10;Composer" style="sketch=0;html=1;fillColor=#5184F3;strokeColor=none;verticalAlign=top;labelPosition=center;verticalLabelPosition=bottom;align=center;spacingTop=-6;fontSize=11;fontStyle=1;fontColor=#999999;shape=mxgraph.gcp2.hexIcon;prIcon=cloud_composer" vertex="1" parent="1">
                    <mxGeometry x="292" y="260" width="66" height="58.5" as="geometry"/>
                </mxCell>
                <mxCell id="16" value="" style="rounded=1;whiteSpace=wrap;html=1;fillColor=none;strokeColor=#000000;" vertex="1" parent="1">
                    <mxGeometry x="181" y="151" width="390" height="200" as="geometry"/>
                </mxCell>
                <mxCell id="18" value="" style="shape=image;verticalLabelPosition=bottom;labelBackgroundColor=#ffffff;verticalAlign=top;aspect=fixed;imageAspect=0;image=data:image/png,iVBORw0KGgoAAAANSUhEUgAAAeYAAAHfCAYAAACF5nuqAAAeJklEQVR42u3d3bHaSMKAYYVACAqBEEjAXq7HnipCIARCIAQyWHam9p4QyGCp+o7P3JKBP3OO8MGYH4FaUnfreaq6tmrWP7KgeQ9qUBcFAADX/TF9GX/9/LKcTf83cjYAoGdfp/83+fr52/cfY//l0+vcGQGAOMJ8HNvDf3NmACCOML+NL5+/rWfTf0pnCAAiCPPJWFh/BoB4wvy2/vznp5eZswUAcYS5Gi8b688AEE2Yj+N1Zf0ZAKIJ8/vlbevPABBPmN/Hv77tvn56nTqTABBDmE/Wnw93EXNGASCKMJ+uP7u8DQCRhPlj/dnZBYA4wvyx/uzrVQAQSZhP1p99vQoAognzz0DbXhIA4gmz23sCQGxhtr0kAEQYZttLAkBsYba9JADEGea3r1dZfwZAmGMJs+0lARDmGMNse0kAhDnW4faeAAhzdMP2kgAIc4zD9pIACHOMgXZ7TwCEObb15y+fXuceRQCEObb1Z1+vAkCY41t/9vUqAIQ5vuH2ngAIc2zrz27vCYAwxzdsLwmAMMc2bC8JgDBHentP688ACHNkX6+y/gyAMNteEgCEud72ki5vAyDMtpcEAGG2vSQAwuz2ngAgzLaXBECYs1t/tr0kAMJse0kAhNlwe08AhNn2kgAgzLaXBECYbS8JAMLc3e09rT8DIMy2lwRAmA239wRAmNMa1p4BEGZhBkCYDWEGQJiFGQBhNoQZAGEWZgCE2Wg5zIfvPbs5CTmbTP6a/Rg7ZwKEOaEwuzkJOQb578mPIG9+jO+H4YyAMKcWZjcnIZMg/3v0I8qrY5CFGYQ57TD/HC+bP6YvY89U0oryfxY/Irw/j7IwgzBnEObTzTFc3ib2IP89PawjXwqyMIMwZxbmj/Vnz1riC/J/x6fryMIMwjyUMH+sP/sKFlEE+W0deVknyMIMwpxvmE/Wn329iv6i/Nf82jqyMIMwDzTMPwO9tP5Md0F++/rT7tEgCzMI84DC/L7+/OXT69wzmvaC/O+y7jqyMIMwC/PH2Fp/JnCQR9XXn76HGM4oCPPQwvw2vnz+trb+TPMov91Gcx8qysIMwjzYMJ8Mt/fkiSC/rSNvQwZZmEGYhflk/fnPTy8zz3buB/ltHXndRpCFGYRZmC98vcr6M1eCPLp1G01hBmEW5laH7SU5jfL7doxtB1mYQZiF2e09uRnk+rfRFGYQZmHuathecqCXrX/fjlGYQZiFOYYw215yYFHuZh1ZmEGYhTno+rOvV+UX5PvbMQozCLMwRxlmt/fM7LJ12cc6sjCDMAtzW+vPvl6VapAf3o5RmEGYhTn2MNteMtEoP7cdozCDMAtzMmG2vWQaQW62HaMwgzALc3JhdnvPSC9bt34bTWEGYRbm+IftJfsPctDtGIUZhFmY0w6z7SV7jXL47RiFGYRZmDMI8+ntPa0/dxHk9rZjFGYQZmHOJ8w/v15l/bm1y9Zln7fRFGYQZmFOetheMmCQRzHcRlOYQZiFOYvh9p4NL1tPU/j6kzCDMAtzguvPZtojQe5nO0ZhBmEW5mGE2faSD122zmMdWZhBmIU5ofVn20teinJe68jCDMIszOkF2u09i3RuoynMIMzCPIwx2O0lY9yOUZhBmIVZmAe3vWTM2zEKMwizMAvzoLaXjH07RmEGYRZmYb42srq9Zw630RRmEGZhNpLfXjK17RiFGYRZmIU5y+0lU92OUZhBmIVZmB+8vWf8688pb8cozCDMwizM2WwvWa0jb4RXmEGYhXmQX6+KZf05p+0YhRmEWZiFOenbew7pNprCDB06XBY8rN95kRdm20vWvmw9HdptNIUZenvn/LLxIi/Mtpe8FuS8t2MUZojUYe3u7RaJXuiF2faSx3XkkXVkYYYILm8LhTC7vafbaAozRBbof8ovn7+tvcgL89C2lxzidozCDMmtP3/bepEX5ty3lxzydozCDAk6vLhVH7LxYi/MyY16YXYrTWGGJNefX5Ze6IVZmA1hhsjWn329SpiF2RBmiHH92derhFmYDWGGyAL9Hhbrz8IszIYwQ1zrz27vKczCbAgzROWwsYD1Z2EWZkOYIbbL259ep9afhVmYDWGG6C5vD3z9WZiF2RBmiC/Qh69XDXT9WZiF2RBmiPby9hBv7ynMwmwIM8TubXvJoVzeFmZhNoQZElt/FmZhFmZhBmJaf856e0lhFmZDmCHZ9eccv14lzMJsCDOkLLvtJYVZmA1hhjzWnzPZXlKYhdkQZshp/Tn523sKszAbwgy5Sfr2nsIszIYwQ7aBTvH2nsIszIYwQ96XtxPbXlKYhdkQZhjEu+e323smsP4szMJsCDMMydvtPWNefxZmYTaEGYZ5eTvS9WdhFmZDmGG4gY7w9p7CLMyGMMPQRbW9pDALsyHMwLsotpcUZmE2hBk4vbzd8/aSwizMhjADlwLd0+09hVmYDWEGbkSw6+0lhVmYDWEG7utse0lhFmZDmIG6l7c7uL2nMAuzIczAY/6YvoxbW38WZmE2hBl4TivbSwqzMBvCDDQMdMjbewqzMBvCDDT3/vWqAOvPwizMhjADAd89N91eUpiF2RBmILynt5cUZmE2hBlo6/L2E7f3FGZhNoQZaDvQD2wvKczCbAgz0I1a20sKszAbwgx06+btPYVZmA1hBvq4vH1Yf35ZCrMwG8IMRBXos+0lhVmYDWEG+vdze0lhFmZDmIG4LnELszAbwgyk9O5amIVZmAGEWZiFWZgBhFmYhRlAmIVZmIUZQJiF2RBmID1Xb05iCHM+YzeZ/D0x24HEAn12cxJDmNMf+x9jbnYDaV/a/vQ6fWrvZ0OYoxp/ryaTf4/MaCCfQL+vPe+FVZgTG5vJ5L9jMxjI9PL2Yf35dSWuwpzIOvLUrAUG4Y/py9j6szDHu478n4VZCgzSn59eZtafhTmydeTSzARc3rb+LMy9ryP7+hPAWaAPX6+y/izMXa8j/zUz+wBueNv7+fO3rQALc7vjcH58/Qmgtrf1Z5e3hTn8WFtHBob1jvfzt8WXz9/Wh0vTzS9v/1x/FmRhbjq21pGBwYa5Csjh3e7iENfmgf6nPMRelIXZbTQBng/z+/jXt93hsnSQP/uw/uzrVcJc/+tPS+vIgDBfvfT8sjmENcTf8eXT63zI68/CXOfrT9aRAe6E+TheV2Eubw93e0lhth0jQMAwf6w/h/j7hnh7T2F2G02A0GH+uf582BYyyN87oO0lhdl2jADthPlk/fnwzjfg378X5uzDbDtGgPbC/DPQy3Drz/ne3nPgYbYdI0B3YX5ffz586jrIsbzd3jO/9eeBhnnvNpoA/YT5Y/050Nercttecnhhth0jQP9hrkYLt/fcC7PtGAGEuflwe8/hhHlvO0aA+MP8tv4c9PaeiW4vmXeYrSMDpBTm49gGXX9O7PJ2pmG2HSNAwmE+ub1nqPXndG7vmVmYbccIkE+Yw28vmcLXqzIJs+0YATIN8+C2l0w/zLZjBMg/zC3c3jPW7SUTDrPtGAGGF+Y2tpeM6/aeCYbZbTQBhDnf7SUTCrPtGAGEOf/tJdMIs+0YAYS5xvpziK9Xnfw798JsO0YAYW4e6GW4r1d1v/4caZh3bqMJIMyD3F4ysjDbjhFAmCO+vWcH68/xhNl2jADC3NJoYXvJnMPsNpoAwtzZiH57yR7DbDtGAGHuZ/055u0l+wmzdWQAYY7g61Wh1p9D3t6z4zDbjhFAmGMbcW0v2VGYd9aRAYQ56svbsWwv2XKYbccIIMwJjZC393xye8n2wmw7RgBhTnj9OdT2ko/e3rOFMNuOEUCYc1p/7nZ7yYBhth0jgDDnuf4c6vaedbaXDBBm2zECCPMAxmG9ONDXq25tL9kszLZjBBDmwY0w20ue3N5zHyDMG19/AhDmoQe6le0lHwyz7RgBhFmU27y9Z70w/zV3G00AhLmD7SUBQJgj214SAIQ5wu0lAUCYA369KtT6MwAIc4TbSwKAMEd2e08AEObA20t6JgEgzJluLwmAMAtrhNtLAiDMRmS39wRAmI0It5cEQJiNQMOzDABhFmYAhNkQZgCEWZgBEGZDmAEQZmEGQJgNYQZAmIUZAGE2hBkAYRZmABBmYQZAmIUZAIRZmAEQZkOYARBmYQZAmA1hBkCYhRkAYTaEGQBhFmYAhNkQZgCEWZgBEGZDmAEQZmEGAGEWZgCEWZgBQJiFGQBhNoQZAGEWZgCE2RBmAIRZmAEQZkOYARBmYQZAmA1hBkCYhRkAYTaEGQBhFmYAEGZhBkCYhRkAhFmYARBmQ5gBEGZhBkCYDWEGQJiFGQBhNoQZAGEWZgCE2RBmAIRZmAEQZkOYARBmYQYAYRZmAIRZmAHgqtn0fyNxFmYAogv0P+XXzy8bIRVmACLydfp/k6//+rYTVGEGICJfPr3Of0RlL6zCDEAk3tefX5biKswAROSP6cvY+rMwAxCZr59ep9afhRmA2AL9/vUq68/CDEAs3r9e9boSXmEGIKZ3z4evV1l/FmYA4vLnp5eZ9WdhBiAibu8pzABEGeh/yi+fv61FWZgBiMj7+vO3rTADQESGfntPzwAAojPk23t69AGIONDD217Sow5A9Ia0vaRHG4B0Aj2A23t6lAFIyvv6c7639/QIA5CkXLeX9MgCkLTctpf0iAKQvJPbe+6FGQCiCXT620t6FAHITsq39/ToAZCtt+0lE7u87VEDIGupbS/pEQNgIIFOY3tJjxQAgxL77T09QgAMUqzbS3pkABisGLeX9KgAINARbS/p0QCASgy39/QoAMB5oHu8vaezDwAX9LW9pDMPALfePb/d3rO79WdnHABqeLu9Zwfrz840ANTUxfaSzjIAPBzo9m7v6ewCwJPa2F7SWQWAhkJuL+lsAkAAobaXdCYBIGigm93e0xkEgBY8u72kMwcALXp0e0lnDABa9sjtPZ0tAOjIH9OX8b31Z2cJADp2a3tJZwcA+gr0hdt7OisA0KP3r1d9rD87IwAQw7vnantJZwIAAAAAAAAAAAAAAAAAAAAAAAAAAAAAAAAAAAAAAAAAAAAAAAAAAAAAAAAAAAAAAAAAAAA6M/4xJj/GyKkAIHWHoH0/G5M7v+fRX9+2zcmx7H+M2RN/Rt1/0+HPXld/z/cLY1cdz/LHKD29ABh6mA9j0UKYD+/Gt1difG0AgDC3FOZHo7z31AJAmNsJ8+xGfDcn4zTeG08tAIT5+TDfsrrwb57f+PVl8f6BNACIIsyj6r9Nq0iejklR79PTkyp+p793Vv338oEwl2fHMbvy90/OxujGn79tcL6P5+b03zW/c85HN46tLH79sNv45NeNz/77rMZ5ACCzMF96d3lpLK/82Ydg7Gv8/vGNcK6q+Oyu/N7thSjd+jdd+vOfCfK9c7O78k78/DE6/oByPK7NlWPdVT+UXFsff/YT7AAkFOZlUf8DUssax1LnE8+b4rEPZl2K6yNhXjwR5W2DY5tcCPi18/HMuZiYBgBxh/l4afXauPXCPn8wCuUT77b3AcK86zDMq6JZLOv8wNLkXKxNA4C4w9wkIofQHi6fXvrw07xofsl4cuHP3twI+OrGu/iuwnx+aX5bnaPju+nZhV+zqvkY7c+O59K52FR/36ga68JXuwAGE+Z7djci92wANxfCN6vxQ0EXYR4Xt9fHj5YXYnrvMVoUv6+Vnx/rsuZjDsBAw7x5IMzHd4PjBn9m3Ri1Fea6EZw+GOayxXMBQGRhXhW/f83pdNQJ86T4/etOizvvmG99cOx4WXqaaZgnD4a5zR9SAIgszPfeAd/69ePi+teUrl2OPar76eW1MAszgDDXi9gjUb4Wjlnx+weUzsdUmIUZQJhvR+zSB502Rf1L2Zcc/szVnaB3HeZNC2F+dI1ZmAGE+W7Ezv+s3ZPheDQ4XYf5sN49anB+ywu/biHMAHQd5vLOO+Zxcf0T2Nsew7woLt/Wc1b8fvOV4wfeljf+7PVZ2CfF799jXgcK8+rCDxErYQYYRpjLKwHbFNc/1HUa0eWF33ft9846DHNZPP4VstONLtY3fs21+4LPAoW5zt/nzl8AmYa5KJp9+GtT1L8l56jDMF9711z3NpllUW9jjmtr2KHCXOeDdABkFubxjQjtL7x7PI1onXhd2hGpizAXVcAe+cGjPDsvdaK5LH6/9NxmmOemAEBczvf6nRT3P9h079eX1Qv+uvj4VPas+LhX8+nvLc9+7+m+wavi43L26Z9RXPg9t/7Ma//OR/5N5792UUX0eHzr4tc9p8srv3d84fce/23lA49R3TCvTo5rfXaspac/ALSrztUDAECYAUCYhRkAhBkAEGYAiDDM++p/V8Vje2UDAAAAAAAAAAAAAABtmxQf97M/jM2FcXrv+Hn1e8ZOHQA0V1aBvban+jN7la+K2xu3AAAX3hlvAsW47p7sAMCZwzaj6w6CfBxTpxwALjusA+87jPL3wt3p4Ddl8fEhjSEPEOXuo/y9eocOnJj0MBFjHDBko56ibO6BMHtxgAs2Pc27jVMPwizMEM9rwNrpB2EWZojj3bKvSoEwCzOcGfc872YeAhBmYYYPy57n3cRDAMIszPBh1/O8Kz0EIMzCDO9GgefQ4etWm+JjA4tV8bGpxda8A2EWZuhm7m+L+pekR9WvnRc++AXCLMzwi3mgKLtzFwizMEMAi8IaMQizMEM0VgHeLQPCLMwQyKbhnFk5hSDMwgzxhHnhFEI7jp+SbHOE+tRnmwOEWZhhMOxAA8IMCDMgzIAwgzADwgwIMyDMIMyAMAPCDAw5zGXx61erFmfj9P8b0n2DD//WacTHNmvxzx+fPe6zC8+LWeTPjaGE+fQxmN6Zv+XAXptjnsP35t385DGc9jjHRleeX/Pqv42FOcwDfzihq+L6VnV1j3lZvTjnFutJdX72RXyb3R8mxvrkcXj23JcnP4Qti9tbFz46dtWfd3xB6ev5kVuYj5E5Pl77otm9E9Yn4c7NtPj1lqyx/UBSnvyw++hjuaueA2VLr33HPjw6f9Ytv1nILsxl9UDuivbuLLZpMdKLJ49p/uDfM7tyjiYtHNvkwRfk+RPHdv4isAwQqxieH6ncbW8TaO7OA/7QdGuv6VWL7y6fnSfTB+dJV3N49MTjOKvOccjX4WXDOTU++eEg1DHtYrlKEWuYJz28EO+rB3oUwaRe1JzMizs/sc4iPrZbLzht/zDW1/MjlTAvGs7dVU/HvctwDocOc53wdPVD1fbBy8nTsyuCbY2VMP/+hFj3/KK0C3iJbNHSeZ3XfHIuWji2VcMXmjpXBWKO1v6JKxpDCHPZY5AvPUaznudwqHkSeg6v7lzd2vbwWJV33hl3EeOo4hxTmKc9nPy21+mendTbBy9Z37pc1NUPDY8e263zu0kgXqsn3pnlGuZZZHP39Lk66mkOdzFPFk+G8PwKR99vhrZXLu1vM2hA0mFeRPzi29e/6/ynxk3gx+fZY7s0sbeBz+06kYBtH3zhTyXMj7zbXBXxX+EYRzCHn12eW7dwbOMnfkDoIoKPXEnoapRDDXPsE3vV06QuqyfqsqXHp+kLzqjhY9fWscX8/Ejl3zTJZO6GiHOT5+LIPHnoMYrxqst6iGGeJfKkmfcwqZeBnqixHtv2zrJGSi8q8wGGeZXgC/84wTm8G0iYYx7lkMI8TuzB6XpShxopHts4wRf9UUZhvvdcnyf6Art7Ys3ZHDaWQwrzLrEHZ5NomMsEX3CKBCfvIqMw5/QDddNLk8JsbIcS5lSfUJME/52TiI/t1juzbZHfu+YcwrzJ4IV2Yg4bT3xeIOswjyJd5G/j3xvDxJkm+IJTFOl8MvuRTzOnHuZJJi+yO2E2Wn5TllyYZ4k/QGVik3oR8bHNMruqss4gzNvM3y0/esvMGJ6Hc2HO4r4WUYc55CXKfbUwf23DgePuIqE+4fzoJ7SF+fkn++zOO57Dc29V/LpbzHFcu+xUFr/uNBP6Xfm+xmXgOiPEJ3k3T45lx2vLu+JjU4rzsQx0PpqsNZvDRucfAOs6zGXgJ+sj1/2bfif4mQ8C9D1x9hH/tL2/865lUv2aTfGx21Mb27SNAp+LEMe4KeL76X4Z+LFfPHj1adrCO/YykTk8FeYkP/ybTJhDfc1i1uDfHOJS+ijyMO9q/ODS57HNiviEWj+dZhrmXaDzs2r4QZpJwHfQs8jn8CyyOXz6g/Ks+HXP81XPnxk4Xj07vXIW8t7fWYc5xKXDeQQvfHU/CLCIOHoxH1tfQpyTRQTPz9BhDnWlaxXoeMaB4rw2h2sdz7Lma16ox6XODwjHPZTrXPVYFcLc6k/d24ATu4sXvq4m9f6JF+NFIciXLmvHsBYVW5hnEb6wTQI9N2Oaw7NI5vDxszux3VRp3eC1JJb2RBfmEC96IV/gmzxQqwiepKdBHkU2gZoeW5/WEQQotjCHeK5MWnisNkX7y1JDmsObAK+xZUvnp4zgOZxlmCdFd2u7daw6+He3OalXDZ+sbR9bakEOdV5yDHPT42nr3UaIe6pPEp4ni4DHMYmoK3XX2Lt+rgjzk5edunpS7zqeOOcvcpMIAnTt+TAu0ibM4Y9nGfFr2KyneRLDHN4V7WzQEONXk0K8McwyzDG84J2adfAghZzUt7761HeYn1kfi9W0EObQrxPTFh+vbcvnKuZ5EttraqjnSxvLHsKcyJNoUqQT5nULl4ZDXgZL9bJ1G88LYe72doZtn6uY54kwC7Mw9xDmfYsvajEfmzALc12ryMMc8xwWZmEW5ogmTuzHJszC3NXzeGEOC7MwC7NJLczCLMzCLMxZhDmlPWtNamEWZmEWZmEWZmEWZmEWZmEWZmEWZpNamIVZmM1hYRZmYR50mA83MTl8p/u4X+82oueFMAuzMAuzMAvzIMJcViHeRf68EGZhFmZhFmZhzjrMoyrIQ9pQXZiFWZiFWZiFOcowjxN4hyzMwmwOC7MwC/MgwtzVpuvCLMzmsDALszCb1DUuX+8TfV4IszALszALszBnF+Z1ws8LYRZmYRZmYRbmrCb1JPHnhTALszALszALc1aTel0IszALszALszALcxTHNsrgeSHMwizMwjyYMG+K9JjUj5kJszALszALszALczzHFvJGIvvqGB8d20KYhdkcFmZhFmaTOkiQvldxL3ucwMIszMIszMIszNkc277oP0jCnFaY14UwC7MwC7Mwt3ZsTS9dxzCBhbnbMLd9rsxhYRZmYRbmJ8damFsLc9MrGfMWn8c7YRZmYX7+gW16YvZFekzq7p4fi0iOI8cwNz2eVUvP4bKDCJjDwizMd0YpzMIszJ2Huek6bls/VM+FWZiFudkDG+LmEfMiLSa1MOcQ5kWAuTuL8DL2d3NYmIce5qJovla1E+Zsj23c8HiWwtxamEO8qO2rH85j+mFhaw4LszCH+55q10ZPXkY3qbt7Pm4imcA5hjnUrVK3geI8C3Q8S3NYmIU53P2yFx2cm0n19xxfJNcZTZwcw9z0Mwij6pzsC2Fu64fq4zvnaYPHaBXoOL7XPA5zWJizD/M44KTaFeHWrcbVJF3ceAHaZzRxYj22XQ/HNAn8Yp9rmOcBz9Fx/s5rvAiPqrm5Cvz3781hYRbmcC++145jUY3JlTE9+TWr6vc8eixlJhMn1mML8a5sW/3ANroxQWfVc2Df0nMxxzC3vfPX+b3Nty3/fStzWJiFOfzl7D7GNJOJE+uxtfHc2LYU4KGFuWjhXWufozSHhVmYf/3Je5/oZF5kMnFiPbZJBi/4OYe5zCTKK3NYmIU5n3fNm0wmTszHti+EOdYwp37F63jJvDSHhVmYL79r3iU6qYW53WNL/XJp7mFOde4+e5Mic1iYBxPmlC9b+mm73WMbF8Icc5iPj1GKVzZ85VGYhbmGeYKTe2pSt35s60KYY/+e/yyxx+XZm5uYw8I8uDCneOlyaVK3fmxlke5a81DCnFKcm9xxzBwW5kGGObV3zhuTupP9sWcRvJgLc/qXtVdFs9uAmsPCPNgwH0/cLpE4m9Tth7mvqymb6h37rBDmukYRLj/sizB3BjSHhXnQYT5O8EURZ4x31WXssUndWZiLDp8Pm7MXhFEhzI+aRvLDddN3yeawMAvzBWURZkOBULf6HJvUvYW5zasp++pF/Nrjuy2E+dlAb4ru3yEvi2YbmZjDwhxFmDcNx7KjSb7q4CfxXXU5bhHwiTGL+PzOEnjsz6+mzAM8D44xrvPp+nlP52XZ8LGZFXEoT85hW3O27mNpDnd3bE27Mm7hmMYBjosbE31S/LoRxfaBSXw8wavqz5i19NMZ7RoXHzuB3Qr19uSqx6ylCc9j71rmJ4/dpuZVse3ZvJ228M4Ybvp/h9gLw7B2o3YAAAAASUVORK5CYII=;" vertex="1" parent="1">
                    <mxGeometry x="500.28" y="290" width="49.72" height="49" as="geometry"/>
                </mxCell>
            </root>
        </mxGraphModel>
    </diagram>
</mxfile>